<?xml version="1.0" standalone="no"?>
<!DOCTYPE svg PUBLIC "-//W3C//DTD SVG 20010904//EN"
 "http://www.w3.org/TR/2001/REC-SVG-20010904/DTD/svg10.dtd">
<svg version="1.0" xmlns="http://www.w3.org/2000/svg"
 width="452.000000pt" height="452.000000pt" viewBox="0 0 452.000000 452.000000"
 preserveAspectRatio="xMidYMid meet">
<metadata>
Created by potrace 1.11, written by Peter Selinger 2001-2013
</metadata>
<g transform="translate(0.000000,452.000000) scale(0.100000,-0.100000)"
fill="#000000" stroke="none">
<path d="M2029 4507 c-35 -27 -39 -53 -39 -276 l0 -221 -65 -41 c-79 -50 -181
-158 -222 -236 -88 -166 -98 -365 -27 -543 15 -36 14 -41 -12 -97 -14 -32 -50
-110 -79 -173 -29 -63 -66 -144 -82 -180 -17 -36 -41 -87 -53 -115 -12 -27
-35 -77 -50 -110 -15 -33 -69 -152 -121 -265 -51 -113 -145 -319 -209 -459
l-116 -254 -216 0 -216 0 -34 35 c-80 80 -209 70 -273 -21 -33 -48 -41 -99
-25 -155 21 -75 112 -141 180 -130 58 9 72 16 112 52 l41 37 173 0 c96 0 174
-1 174 -2 0 -3 -30 -71 -80 -178 -17 -38 -41 -90 -52 -115 -11 -25 -56 -124
-100 -220 -59 -130 -81 -190 -85 -231 -6 -66 13 -133 53 -186 l26 -34 -67
-149 c-72 -161 -76 -194 -32 -225 26 -18 96 -19 117 -2 9 7 44 76 80 155 35
78 64 142 64 143 1 0 21 3 46 5 69 8 137 42 178 89 25 29 77 131 161 317 69
150 142 311 164 358 22 47 53 114 69 149 16 36 35 79 44 96 l14 30 253 -1
c138 -1 255 -2 260 -3 4 0 7 -47 7 -103 0 -109 9 -134 55 -155 16 -7 338 -11
416 -4 9 0 28 12 43 26 25 23 26 28 26 132 l0 108 260 0 260 0 19 -40 c19 -41
256 -560 306 -670 86 -190 104 -222 142 -256 43 -39 104 -65 166 -73 21 -2 40
-6 42 -7 2 -2 33 -69 69 -148 36 -80 72 -148 79 -153 25 -16 103 -9 121 11 35
38 30 67 -39 220 l-66 148 35 51 c38 57 52 118 43 186 -4 23 -76 196 -162 384
-85 188 -155 343 -155 345 0 1 79 2 175 2 l174 0 33 -32 c33 -32 89 -59 118
-58 117 7 192 86 185 194 -10 137 -155 211 -273 139 -17 -11 -39 -29 -46 -40
-14 -20 -25 -21 -232 -22 l-217 -1 -32 70 c-18 39 -47 102 -65 140 -18 39 -42
93 -55 120 -12 28 -35 77 -50 110 -15 33 -46 103 -70 155 -24 52 -57 127 -75
165 -18 39 -66 144 -107 235 -111 245 -112 247 -159 348 -24 52 -44 95 -44 97
0 2 -18 42 -41 90 -40 87 -40 87 -24 127 69 173 59 378 -28 543 -37 71 -171
210 -237 246 l-45 24 -3 232 -2 232 -31 25 -31 26 -211 0 c-151 -1 -217 -4
-228 -13z m321 -305 l0 -138 -90 0 -90 0 0 138 0 138 90 0 90 0 0 -138z m30
-332 c142 -38 260 -149 307 -290 28 -85 25 -227 -7 -308 -69 -173 -230 -284
-415 -285 -101 -1 -174 21 -255 74 -118 79 -187 199 -197 340 -10 139 32 255
127 350 115 116 283 161 440 119z m-535 -910 c10 -11 40 -34 66 -51 27 -17 49
-33 49 -36 0 -3 -44 -101 -175 -388 -12 -27 -37 -81 -55 -120 -18 -38 -76
-167 -130 -285 -54 -118 -112 -246 -130 -285 -46 -102 -69 -153 -100 -220 -15
-33 -42 -91 -60 -130 -18 -38 -86 -189 -152 -335 -251 -553 -271 -594 -299
-606 -26 -11 -31 -11 -71 0 -31 9 -58 45 -58 77 0 24 6 38 388 874 143 314
272 597 287 630 15 33 40 87 55 120 16 33 75 164 133 290 57 127 121 266 141
309 21 44 46 101 58 128 11 26 24 48 28 48 4 0 15 -9 25 -20z m887 -37 c27
-59 181 -398 223 -488 13 -27 93 -203 178 -390 85 -187 171 -374 190 -415 19
-41 77 -169 130 -285 52 -115 110 -244 129 -285 186 -402 210 -461 204 -494
-10 -54 -64 -82 -120 -63 -31 11 -54 55 -219 422 -25 55 -61 136 -82 180 -116
251 -126 277 -119 309 4 17 6 40 5 51 -4 27 -40 65 -62 65 -10 0 -25 18 -39
48 -29 60 -72 153 -100 217 -13 28 -38 84 -57 125 -20 41 -66 143 -103 225
-37 83 -89 194 -114 248 -25 55 -46 100 -46 102 0 2 -22 51 -50 110 -27 59
-50 108 -50 110 0 2 -16 37 -35 78 -19 41 -35 77 -35 80 0 3 22 19 49 36 26
17 56 40 66 51 10 11 21 20 25 20 4 0 18 -26 32 -57z m-442 -117 c39 2 75 6
81 9 7 5 119 -211 119 -229 0 -2 20 -46 44 -97 47 -101 73 -159 141 -310 24
-52 57 -124 73 -160 165 -352 219 -479 203 -480 -20 -1 -380 -1 -403 0 -16 1
-18 13 -18 105 0 96 -2 107 -24 133 l-24 28 -216 3 -216 3 -30 -30 c-30 -29
-30 -31 -30 -135 0 -103 -1 -106 -22 -107 -25 -1 -412 -1 -415 0 -1 1 16 38
37 84 21 45 50 109 65 142 84 186 381 838 402 885 14 30 34 75 45 100 25 59
40 70 83 60 19 -4 66 -6 105 -4z m57 -1359 l-2 -182 -87 0 -88 0 0 183 0 182
90 -1 89 -1 -2 -181z"/>
<path d="M2190 3789 c-249 -48 -370 -343 -228 -555 158 -234 506 -203 627 55
22 47 26 70 26 146 0 82 -3 97 -33 157 -72 147 -231 227 -392 197z m164 -202
c58 -32 89 -96 82 -166 -9 -99 -78 -163 -176 -163 -135 0 -219 135 -160 257
46 95 156 126 254 72z"/>
</g>
</svg>
